<svg width="16" height="16" viewBox="0 0 16 16" fill="none" xmlns="http://www.w3.org/2000/svg">
<path d="M10.6821 1.21222C10.5148 1.20746 10.3333 1.2313 10.1353 1.29574C9.66629 1.44368 9.34808 1.74913 9.17605 2.11663C9.01107 2.47457 8.95451 3.29308 8.95451 3.29308L7.04772 3.30022C7.04772 3.30022 6.99115 2.47695 6.82383 2.11663C6.65648 1.74913 6.33593 1.43653 5.86925 1.29574C5.68304 1.24085 5.48979 1.20746 5.3201 1.21222C4.82045 1.22414 0.0570533 2.32899 0.000498904 2.42445C-0.0207238 2.46026 0.636903 3.09975 1.63624 3.83711L2.59317 2.8683L2.98913 3.26917L2.10055 4.1688C2.40225 4.37402 2.72281 4.58163 3.05982 4.78208L4.00727 3.82277L4.4033 4.22367L3.57129 5.06603C3.86355 5.22352 4.16522 5.37147 4.47165 5.50034L5.42148 4.53866L5.81744 4.93956L5.04436 5.68929C5.92588 5.99237 6.81914 5.91166 7.6205 5.91166H8.38417C9.14308 5.91166 9.97509 5.83485 10.8047 5.54611L10.173 4.92308L10.569 4.53039L11.3798 5.3554C11.6909 5.22655 11.995 5.08542 12.2943 4.93749L11.5872 4.22262L11.9832 3.82225L12.8152 4.66486C13.1616 4.47397 13.4916 4.27604 13.8027 4.08035L13.0014 3.26907L13.3973 2.86822L14.2835 3.76549C15.3276 3.06392 16.023 2.46019 15.9994 2.42439C15.9452 2.32898 11.1818 1.22414 10.6821 1.21222ZM7.54975 6.17273L7.62575 15.8473V15.8544C7.62575 15.9356 7.67689 16 7.75703 16C7.83483 15.9976 7.88359 15.9308 7.88359 15.8544V15.8473L8.45011 6.17273H7.54975ZM7.99993 0C7.41777 0 6.94403 0.462928 6.94403 1.05234C6.94403 1.43175 7.14201 1.6836 7.43899 1.86973L7.47199 3.04029H8.52789L8.56089 1.86973C8.85784 1.6836 9.05583 1.44195 9.05583 1.06013C9.05583 0.473119 8.58208 0 7.99993 0ZM7.54034 13.7879C7.40834 13.7473 7.29523 13.6972 7.20095 13.6352C7.01238 13.5063 6.93459 13.3655 6.93459 13.2343C6.93459 13.103 7.01238 12.9622 7.20095 12.8358C7.28342 12.7785 7.38713 12.726 7.50968 12.6902C7.50262 12.4516 7.49556 12.213 7.48846 11.9719C7.22686 11.9123 6.99824 11.8168 6.81911 11.6951C6.53391 11.4971 6.39956 11.2632 6.39956 11.0246C6.39956 10.7907 6.53391 10.5521 6.81911 10.354C6.98881 10.2395 7.19623 10.1464 7.43427 10.0892C7.42956 9.85053 7.4248 9.61189 7.41774 9.37566C7.01471 9.29928 6.65882 9.15374 6.38774 8.96283C5.98945 8.6884 5.78203 8.34 5.78203 7.97968C5.77731 7.31868 6.22277 7.44277 6.67532 7.30675C6.88743 7.24231 7.06184 7.15881 7.19382 7.02995C7.25982 6.96552 7.33761 6.87722 7.34233 6.7269C7.29755 6.34032 6.911 6.27827 6.6376 6.28063C6.51503 6.2854 6.41371 6.30213 6.376 6.30451C5.52516 6.43097 5.23053 7.4714 5.20931 7.97968C5.20931 8.58579 5.56283 9.1084 6.07429 9.46633C6.24634 9.58566 6.43724 9.68824 6.64232 9.76939C6.59516 9.79564 6.54806 9.82668 6.50328 9.85768C6.10732 10.1297 5.82443 10.5449 5.82443 11.0246C5.82443 11.509 6.10732 11.9194 6.50328 12.1915C6.60463 12.2607 6.71542 12.3251 6.8309 12.3799C6.5504 12.5804 6.35243 12.8835 6.35243 13.2342C6.35243 13.6089 6.5787 13.9239 6.8804 14.1244C7.076 14.258 7.30463 14.3486 7.55918 14.4011C7.55212 14.196 7.54505 13.9931 7.54034 13.7879ZM6.69892 6.46202C6.84739 6.46202 6.96525 6.52884 6.96525 6.61237C6.96525 6.6935 6.84739 6.7603 6.69892 6.7603C6.55041 6.7603 6.43256 6.6935 6.43256 6.61237C6.43256 6.52884 6.55041 6.46202 6.69892 6.46202ZM10.7905 7.97971C10.7693 7.47144 10.4747 6.42863 9.62386 6.30454C9.5131 6.29261 9.40232 6.28067 9.3104 6.28067C9.04171 6.28544 8.70229 6.36422 8.65749 6.72694C8.66455 6.87725 8.73997 6.96556 8.80597 7.02999C8.94032 7.15884 9.11239 7.24236 9.32453 7.30679C9.77705 7.44281 10.2249 7.31871 10.2178 7.97971C10.2178 8.34003 10.0104 8.68843 9.61204 8.96287C9.341 9.15376 8.98509 9.29931 8.58205 9.37569C8.57499 9.61191 8.56792 9.85055 8.56086 10.0892C8.79419 10.1465 8.91791 10.2348 9.08054 10.3469C9.36806 10.5378 9.4305 10.774 9.4305 11.0079C9.4305 11.0079 9.4305 11.0103 9.4305 11.0151V11.0246C9.4305 11.2632 9.37984 11.4971 9.09467 11.6952C8.91791 11.8169 8.72879 11.9171 8.46717 11.9744C8.46007 12.213 8.47747 12.4516 8.4704 12.6902C8.58353 12.726 8.61957 12.7738 8.70204 12.8286C8.89531 12.9551 8.91484 13.0935 8.91484 13.2224V13.2343C8.91484 13.3655 8.91461 13.5063 8.72607 13.6352C8.6365 13.6972 8.5527 13.7474 8.42074 13.7879C8.41602 13.9931 8.43186 14.196 8.42479 14.4012C8.677 14.3487 8.81098 14.258 9.0019 14.1244C9.30123 13.9287 9.4305 13.6185 9.4305 13.2534V13.2343C9.4305 13.2343 9.4305 13.2296 9.4305 13.2272V13.2057C9.4305 12.8668 9.33036 12.5757 9.06167 12.38C9.17952 12.3251 9.22578 12.2607 9.32951 12.1915C9.72309 11.9195 9.94615 11.5114 9.94615 11.039V10.9888C9.94615 10.514 9.76025 10.1131 9.36192 9.84343C9.32186 9.81956 9.34086 9.79331 9.3008 9.77182C9.51056 9.68831 9.72511 9.58571 9.8948 9.46639C10.4063 9.10843 10.7905 8.58583 10.7905 7.97971ZM9.38816 6.76031C9.23968 6.76031 9.12183 6.69352 9.12183 6.61239C9.12183 6.52886 9.23968 6.46204 9.38816 6.46204C9.53666 6.46204 9.65448 6.52886 9.65448 6.61239C9.65448 6.6935 9.53666 6.76031 9.38816 6.76031Z" fill="#121212"/>
</svg>
